<svg width="215" height="215" viewBox="0 0 215 215" fill="none" xmlns="http://www.w3.org/2000/svg">
<g clip-path="url(#clip0_4_2)">
<path d="M98.1429 215C94.8291 215 92.1429 212.314 92.1429 209V128.857C92.1429 125.543 89.4566 122.857 86.1429 122.857H6C2.68629 122.857 0 120.171 0 116.857V98.1429C0 94.8291 2.68629 92.1429 6 92.1429H86.1429C89.4566 92.1429 92.1429 89.4566 92.1429 86.1429V6C92.1429 2.68629 94.8291 0 98.1429 0H116.857C120.171 0 122.857 2.68629 122.857 6V86.1429C122.857 89.4566 125.543 92.1429 128.857 92.1429H209C212.314 92.1429 215 94.8291 215 98.1429V116.857C215 120.171 212.314 122.857 209 122.857H128.857C125.543 122.857 122.857 125.543 122.857 128.857V209C122.857 212.314 120.171 215 116.857 215H98.1429Z" fill="white"/>
</g>
<defs>
<clipPath id="clip0_4_2">
<rect width="215" height="215" fill="white"/>
</clipPath>
</defs>
</svg>
